<svg width="38" height="66" viewBox="0 0 38 66" fill="none" xmlns="http://www.w3.org/2000/svg">
<path d="M2.29825 63.9513C1.89471 63.561 1.57198 63.0962 1.34855 62.5834C1.12513 62.0706 1.00541 61.52 0.99627 60.9631C0.987128 60.4062 1.08874 59.854 1.29528 59.3381C1.50182 58.8223 1.80921 58.3529 2.19985 57.957L27.1614 32.5674L1.37213 7.53434C0.558903 6.74518 0.0916716 5.6703 0.0732179 4.54615C0.0547643 3.422 0.4866 2.34067 1.27373 1.54005C2.06086 0.73942 3.1388 0.285078 4.27042 0.276972C5.40204 0.268865 6.49464 0.707657 7.30787 1.49682L36.1669 29.5018C36.5704 29.8921 36.8931 30.3569 37.1166 30.8697C37.34 31.3825 37.4597 31.9331 37.4689 32.49C37.478 33.0469 37.3764 33.5991 37.1698 34.115C36.9633 34.6308 36.6559 35.1002 36.2653 35.4961L8.33239 63.908C7.94315 64.3053 7.47809 64.6217 6.96385 64.839C6.44962 65.0562 5.89635 65.1701 5.33575 65.1742C4.77516 65.1782 4.21827 65.0722 3.69703 64.8624C3.17579 64.6525 2.70044 64.3429 2.29825 63.9513Z" fill="black"/>
</svg>
