<svg width="49" height="49" viewBox="0 0 49 49" fill="none" xmlns="http://www.w3.org/2000/svg">
<g clip-path="url(#clip0_1187_4175)">
<path d="M24.5 0C10.9691 0 0 10.9691 0 24.5C0 38.0317 10.9691 49 24.5 49C38.0317 49 49 38.0317 49 24.5C49 10.9691 38.0317 0 24.5 0ZM24.5 45.9857C12.6795 45.9857 3.0625 36.3205 3.0625 24.4999C3.0625 12.6794 12.6795 3.0624 24.5 3.0624C36.3205 3.0624 45.9375 12.6795 45.9375 24.4999C45.9375 36.3203 36.3205 45.9857 24.5 45.9857ZM35.2188 22.9688H26.0312V13.7812C26.0312 12.936 25.3452 12.25 24.5 12.25C23.6548 12.25 22.9688 12.936 22.9688 13.7812V22.9688H13.7812C12.936 22.9688 12.25 23.6548 12.25 24.5C12.25 25.3452 12.936 26.0312 13.7812 26.0312H22.9688V35.2188C22.9688 36.064 23.6548 36.75 24.5 36.75C25.3452 36.75 26.0312 36.064 26.0312 35.2188V26.0312H35.2188C36.064 26.0312 36.75 25.3452 36.75 24.5C36.75 23.6548 36.064 22.9688 35.2188 22.9688Z" fill="black"/>
</g>
<defs>
<clipPath id="clip0_1187_4175">
<rect width="49" height="49" fill="white"/>
</clipPath>
</defs>
</svg>
