<svg width="30" height="29" viewBox="0 0 30 29" fill="none" xmlns="http://www.w3.org/2000/svg">
<path fill-rule="evenodd" clip-rule="evenodd" d="M3.68419 0.581475C3.28004 0.204147 2.73875 -0.00464128 2.1769 7.83054e-05C1.61505 0.00479789 1.0776 0.222648 0.680292 0.606707C0.282989 0.990767 0.057627 1.51031 0.0527446 2.05343C0.0478623 2.59655 0.26385 3.1198 0.654189 3.51047L11.9963 14.4745L0.654189 25.4386C0.449524 25.6297 0.286277 25.8583 0.173972 26.111C0.0616667 26.3637 0.00255337 26.6355 8.09073e-05 26.9106C-0.00239156 27.1856 0.0518264 27.4584 0.159571 27.713C0.267316 27.9675 0.42643 28.1988 0.627628 28.3933C0.828827 28.5878 1.06808 28.7416 1.33143 28.8457C1.59478 28.9499 1.87695 29.0023 2.16148 28.9999C2.446 28.9975 2.72719 28.9404 2.98863 28.8318C3.25006 28.7233 3.48652 28.5655 3.68419 28.3676L15.0263 17.4035L26.3685 28.3676C26.7726 28.7449 27.3139 28.9537 27.8758 28.949C28.4376 28.9443 28.9751 28.7264 29.3724 28.3424C29.7697 27.9583 29.995 27.4388 29.9999 26.8957C30.0048 26.3525 29.7888 25.8293 29.3985 25.4386L18.0563 14.4745L29.3985 3.51047C29.7888 3.1198 30.0048 2.59655 29.9999 2.05343C29.995 1.51031 29.7697 0.990767 29.3724 0.606707C28.9751 0.222648 28.4376 0.00479789 27.8758 7.83054e-05C27.3139 -0.00464128 26.7726 0.204147 26.3685 0.581475L15.0263 11.5455L3.68419 0.581475Z" fill="black"/>
</svg>
