<svg width="40" height="38" viewBox="0 0 40 38" fill="none" xmlns="http://www.w3.org/2000/svg">
<path d="M20 26.5999C22.1217 26.5999 24.1566 25.7992 25.6569 24.3739C27.1571 22.9486 28 21.0155 28 18.9999C28 16.9843 27.1571 15.0512 25.6569 13.6259C24.1566 12.2006 22.1217 11.3999 20 11.3999V26.5999Z" fill="black"/>
<path fill-rule="evenodd" clip-rule="evenodd" d="M20 0C8.954 0 0 8.5063 0 19C0 29.4937 8.954 38 20 38C31.046 38 40 29.4937 40 19C40 8.5063 31.046 0 20 0ZM20 3.8V11.4C17.8783 11.4 15.8434 12.2007 14.3431 13.626C12.8429 15.0513 12 16.9844 12 19C12 21.0156 12.8429 22.9487 14.3431 24.374C15.8434 25.7993 17.8783 26.6 20 26.6V34.2C24.2435 34.2 28.3131 32.5986 31.3137 29.748C34.3143 26.8975 36 23.0313 36 19C36 14.9687 34.3143 11.1025 31.3137 8.25198C28.3131 5.40142 24.2435 3.8 20 3.8Z" fill="black"/>
</svg>
