<svg width="41" height="41" viewBox="0 0 41 41" fill="none" xmlns="http://www.w3.org/2000/svg">
<g clip-path="url(#clip0_1185_3989)">
<path d="M35.0266 0.517414L1.91096 19.6146C-0.827446 21.1988 -0.564749 25.2507 2.36471 26.4527L11.4635 30.218V36.9366C11.4635 40.6303 16.1762 42.1508 18.3573 39.2133L21.844 34.5087L30.7518 38.1864C31.2215 38.3775 31.715 38.473 32.2086 38.473C32.8613 38.473 33.5061 38.3059 34.0873 37.9795C35.1062 37.4063 35.8067 36.3874 35.9898 35.2331L40.7183 4.41009C41.2039 1.21794 37.7809 -1.06672 35.0266 0.517414ZM15.2846 36.9366V31.7942L18.1981 32.9962L15.2846 36.9366ZM32.2086 34.652L19.9653 29.5971L31.126 13.493C31.9777 12.2591 30.3697 10.8262 29.2393 11.8054L12.4029 26.4766L3.82148 22.9262L36.9371 3.82102L32.2086 34.652Z" fill="black"/>
</g>
<defs>
<clipPath id="clip0_1185_3989">
<rect width="40.7577" height="40.7577" fill="white"/>
</clipPath>
</defs>
</svg>
