<svg width="39" height="39" viewBox="0 0 39 39" fill="none" xmlns="http://www.w3.org/2000/svg">
<path fill-rule="evenodd" clip-rule="evenodd" d="M0 9.89356C0 9.40871 0.192605 8.94371 0.535445 8.60087C0.878285 8.25803 1.34328 8.06543 1.82812 8.06543H37.1719C37.6567 8.06543 38.1217 8.25803 38.4646 8.60087C38.8074 8.94371 39 9.40871 39 9.89356C39 10.3784 38.8074 10.8434 38.4646 11.1862C38.1217 11.5291 37.6567 11.7217 37.1719 11.7217H1.82812C1.34328 11.7217 0.878285 11.5291 0.535445 11.1862C0.192605 10.8434 0 10.3784 0 9.89356ZM0 20.2529C0 19.7681 0.192605 19.3031 0.535445 18.9603C0.878285 18.6174 1.34328 18.4248 1.82812 18.4248H37.1719C37.6567 18.4248 38.1217 18.6174 38.4646 18.9603C38.8074 19.3031 39 19.7681 39 20.2529C39 20.7378 38.8074 21.2028 38.4646 21.5456C38.1217 21.8885 37.6567 22.0811 37.1719 22.0811H1.82812C1.34328 22.0811 0.878285 21.8885 0.535445 21.5456C0.192605 21.2028 0 20.7378 0 20.2529ZM1.82812 28.7842C1.34328 28.7842 0.878285 28.9768 0.535445 29.3196C0.192605 29.6625 0 30.1275 0 30.6123C0 31.0972 0.192605 31.5621 0.535445 31.905C0.878285 32.2478 1.34328 32.4404 1.82812 32.4404H37.1719C37.6567 32.4404 38.1217 32.2478 38.4646 31.905C38.8074 31.5621 39 31.0972 39 30.6123C39 30.1275 38.8074 29.6625 38.4646 29.3196C38.1217 28.9768 37.6567 28.7842 37.1719 28.7842H1.82812Z" fill="white"/>
</svg>
