<svg width="40" height="35" viewBox="0 0 40 35" fill="none" xmlns="http://www.w3.org/2000/svg">
<path fill-rule="evenodd" clip-rule="evenodd" d="M21.0803 0.37779C20.452 -0.125937 19.5473 -0.125929 18.919 0.377809L0.623904 15.0445C0.0670153 15.4909 -0.14285 16.2314 0.0995919 16.8944C0.342034 17.5575 0.984469 18 1.7046 18H4.35406L5.70868 32.4753C5.8425 33.9054 7.06905 35 8.53771 35H14.8867C15.5143 35 16.0231 34.5025 16.0231 33.8889V25.3503C16.0231 22.017 18.8045 22.017 19.4321 22.017H20.5684C21.196 22.017 23.9774 22.017 23.9774 25.3503V33.8889C23.9774 34.5025 24.4862 35 25.1138 35H31.463C32.9316 35 34.1582 33.9054 34.292 32.4753L35.6466 18H38.2954C39.0155 18 39.658 17.5575 39.9004 16.8944C40.1429 16.2314 39.933 15.4909 39.3761 15.0445L21.0803 0.37779Z" stroke="black" stroke-width="3" stroke-linejoin="round"/>
</svg>
