<svg width="38" height="37" viewBox="0 0 38 37" fill="none" xmlns="http://www.w3.org/2000/svg">
<path fill-rule="evenodd" clip-rule="evenodd" d="M19 33.5312C27.5259 33.5312 34.4375 26.8015 34.4375 18.5C34.4375 10.1985 27.5259 3.46875 19 3.46875C10.4741 3.46875 3.5625 10.1985 3.5625 18.5C3.5625 26.8015 10.4741 33.5312 19 33.5312ZM38 18.5C38 28.7173 29.4934 37 19 37C8.50659 37 0 28.7173 0 18.5C0 8.28273 8.50659 0 19 0C29.4934 0 38 8.28273 38 18.5Z" fill="black"/>
<path fill-rule="evenodd" clip-rule="evenodd" d="M22.6093 22.0675C23.1639 21.7409 23.5516 21.2019 23.6771 20.5827L25.7971 10.1205C25.9132 9.54726 25.2752 9.11228 24.7617 9.41462L15.3898 14.9326C14.8352 15.2592 14.4475 15.7983 14.3221 16.4174L12.2021 26.8797C12.0859 27.4529 12.7239 27.8879 13.2374 27.5855L22.6093 22.0675ZM16.802 21.556L20.3863 19.4456L21.1972 15.4442L17.6128 17.5546L16.802 21.556Z" fill="black"/>
</svg>
