<svg width="28" height="28" viewBox="0 0 28 28" fill="none" xmlns="http://www.w3.org/2000/svg">
<path d="M20.8714 10.4353L19.8975 20.1724C19.7502 21.6484 19.6772 22.3858 19.3409 22.9435C19.046 23.4344 18.6123 23.827 18.0945 24.0716C17.5067 24.3488 16.767 24.3488 15.2828 24.3488H12.5465C11.0636 24.3488 10.3227 24.3488 9.73484 24.0705C9.21662 23.826 8.78247 23.4334 8.48726 22.9423C8.15334 22.3858 8.07913 21.6484 7.93072 20.1724L6.95794 10.4353M15.6539 17.9717V12.1744M12.1755 17.9717V12.1744M5.21875 7.53662H10.5696M10.5696 7.53662L11.0172 4.43855C11.1471 3.87505 11.6155 3.47852 12.1535 3.47852H15.6759C16.2139 3.47852 16.6811 3.87505 16.8122 4.43855L17.2597 7.53662M10.5696 7.53662H17.2597M17.2597 7.53662H22.6106" stroke="#FF1B1B" stroke-width="1.5" stroke-linecap="round" stroke-linejoin="round"/>
</svg>
