<svg width="39" height="39" viewBox="0 0 39 39" fill="none" xmlns="http://www.w3.org/2000/svg">
<path fill-rule="evenodd" clip-rule="evenodd" d="M0 9.89404C0 9.40919 0.192605 8.9442 0.535445 8.60136C0.878285 8.25852 1.34328 8.06592 1.82812 8.06592H37.1719C37.6567 8.06592 38.1217 8.25852 38.4646 8.60136C38.8074 8.9442 39 9.40919 39 9.89404C39 10.3789 38.8074 10.8439 38.4646 11.1867C38.1217 11.5296 37.6567 11.7222 37.1719 11.7222H1.82812C1.34328 11.7222 0.878285 11.5296 0.535445 11.1867C0.192605 10.8439 0 10.3789 0 9.89404ZM0 20.2534C0 19.7686 0.192605 19.3036 0.535445 18.9607C0.878285 18.6179 1.34328 18.4253 1.82812 18.4253H37.1719C37.6567 18.4253 38.1217 18.6179 38.4646 18.9607C38.8074 19.3036 39 19.7686 39 20.2534C39 20.7383 38.8074 21.2033 38.4646 21.5461C38.1217 21.8889 37.6567 22.0815 37.1719 22.0815H1.82812C1.34328 22.0815 0.878285 21.8889 0.535445 21.5461C0.192605 21.2033 0 20.7383 0 20.2534ZM1.82812 28.7847C1.34328 28.7847 0.878285 28.9773 0.535445 29.3201C0.192605 29.663 0 30.1279 0 30.6128C0 31.0976 0.192605 31.5626 0.535445 31.9055C0.878285 32.2483 1.34328 32.4409 1.82812 32.4409H37.1719C37.6567 32.4409 38.1217 32.2483 38.4646 31.9055C38.8074 31.5626 39 31.0976 39 30.6128C39 30.1279 38.8074 29.663 38.4646 29.3201C38.1217 28.9773 37.6567 28.7847 37.1719 28.7847H1.82812Z" fill="white"/>
</svg>
