<svg width="28" height="28" viewBox="0 0 28 28" fill="none" xmlns="http://www.w3.org/2000/svg">
<path d="M20.6099 10.3051L19.6481 19.9209C19.5027 21.3785 19.4306 22.1067 19.0985 22.6574C18.8073 23.1423 18.379 23.5299 17.8677 23.7715C17.2871 24.0452 16.5566 24.0452 15.091 24.0452H12.3888C10.9243 24.0452 10.1927 24.0452 9.61215 23.7704C9.10038 23.529 8.67165 23.1413 8.38012 22.6563C8.05036 22.1067 7.97708 21.3785 7.83052 19.9209L6.86985 10.3051M15.4574 17.7477V12.0226M12.0224 17.7477V12.0226M5.15234 7.44259H10.4366M10.4366 7.44259L10.8785 4.38312C11.0068 3.82665 11.4693 3.43506 12.0006 3.43506H15.4792C16.0104 3.43506 16.4719 3.82665 16.6013 4.38312L17.0432 7.44259M10.4366 7.44259H17.0432M17.0432 7.44259H22.3275" stroke="#FF1B1B" stroke-width="1.5" stroke-linecap="round" stroke-linejoin="round"/>
</svg>
